# xmcd
#
# Track frame offsets:
#	150
#	21687
#	33771
#	49816
#	70368
#	78175
#	95255
#	108717
#	122545
#	144315
#	158296
#	168521
#	179331
#	196966
#	207989
#
# Disc length: 2892 seconds
#
# Revision: 1
# Processed by: cddbd v1.5.2PL0 Copyright (c) Steve Scherf et al.
# Submitted via: EasyCDDAExtractor 16.0.6.1
#
DISCID=c60b4a0f
DTITLE=Συλλογικός δίσκος - Πολίτικο γλέντι 3
DYEAR=2013
DGENRE=Παραδοσιακή
TTITLE0=Αλούπης Τάσος - Σαν το μάρμαρα της Πόλης
TTITLE1=Δερέμπεη Ειρήνη - Το καραβάκι
TTITLE2=Μπαραμπούτης Βασίλης - Τρεις πέτρες διαμαντόπετρες
TTITLE3=Παπαδοπούλου Κατερίνα - Ας βαστάξει αυτός ο μπάλλος
TTITLE4=Σινόπουλος Σωκράτης - Καρσιλαμάς Πολίτικος
TTITLE5=Σινοπούλου Ουρανία - Σε τι παχτσέ κατέβηκες
TTITLE6=Μπαραμπούτης Βασίλης - Αλεξανδρίτσα
TTITLE7=Μητροπάνος Χρυσόστομος - Μ' έχεις μπερντεμένο
TTITLE8=Αλούπης Τάσος - Καλιάντρα
TTITLE9=Σινόπουλος Σωκράτης - Ζεϊμπέκικος Πολίτικος
TTITLE10=Μπαραμπούτης Βασίλης - Αχ! Μανιώ μου
TTITLE11=Άνευ ερμηνευτού - Ταταυλιανό [βιολί Κυριάκος Γκουβέντας]
TTITLE12=Αηδονίδης Χρόνης - Δυο παιδιά, καλά παιδιά
TTITLE13=Άνευ ερμηνευτού - Πολίτικο αντικρυστό [βιολί Κυριάκος Γκουβέντας]
TTITLE14=Χορωδία Αγίου Ευθυμίου - Τα ευζωνάκια [Γιώργος Λαμπελέτ-Ζαχ. Παπαντων
TTITLE14=ίου]
EXTD=
EXTT0=
EXTT1=
EXTT2=
EXTT3=
EXTT4=
EXTT5=
EXTT6=
EXTT7=
EXTT8=
EXTT9=
EXTT10=
EXTT11=
EXTT12=
EXTT13=
EXTT14=
PLAYORDER=
